<svg width="20" height="21" viewBox="0 0 20 21" fill="none" xmlns="http://www.w3.org/2000/svg">
<path d="M5.92556 11.0857L7.96191 4.75868H9.43468L6.65929 12.5H5.66504L5.92556 11.0857ZM4.0434 4.75868L6.0638 11.0857L6.34028 12.5H5.34071L2.57595 4.75868H4.0434Z" fill="#616161"/>
<path d="M15.1329 15.4172C15.1329 15.2505 15.107 15.1024 15.0552 14.9728C15.007 14.8432 14.92 14.7248 14.7941 14.6174C14.6682 14.51 14.4905 14.4063 14.2609 14.3063C14.0351 14.2027 13.7462 14.0971 13.3945 13.9897C13.0094 13.8713 12.6539 13.7398 12.3281 13.5954C12.0059 13.4473 11.7245 13.277 11.4838 13.0844C11.2431 12.8882 11.0562 12.6641 10.9229 12.4124C10.7896 12.1569 10.7229 11.8625 10.7229 11.5292C10.7229 11.1997 10.7914 10.8998 10.9284 10.6295C11.0691 10.3592 11.2672 10.1259 11.5227 9.92963C11.7819 9.72968 12.0874 9.57601 12.4391 9.46863C12.7909 9.35754 13.1797 9.302 13.6055 9.302C14.2054 9.302 14.7219 9.41309 15.1552 9.63525C15.5921 9.85742 15.9272 10.1555 16.1605 10.5295C16.3974 10.9035 16.5159 11.3163 16.5159 11.7681H15.1329C15.1329 11.5015 15.0755 11.2663 14.9608 11.0627C14.8497 10.8553 14.6793 10.6924 14.4498 10.5739C14.2239 10.4554 13.9369 10.3962 13.5889 10.3962C13.2593 10.3962 12.9853 10.4462 12.7668 10.5461C12.5484 10.6461 12.3855 10.7813 12.2781 10.9516C12.1707 11.1219 12.117 11.3145 12.117 11.5292C12.117 11.6811 12.1522 11.8199 12.2225 11.9458C12.2929 12.068 12.4003 12.1828 12.5447 12.2902C12.6891 12.3938 12.8705 12.492 13.089 12.5845C13.3075 12.6771 13.5648 12.766 13.861 12.8511C14.3091 12.9844 14.6997 13.1325 15.033 13.2955C15.3662 13.4547 15.6439 13.6361 15.8661 13.8398C16.0883 14.0434 16.2549 14.2749 16.366 14.5341C16.4771 14.7896 16.5326 15.0802 16.5326 15.4061C16.5326 15.7467 16.4641 16.0541 16.3271 16.3281C16.1901 16.5984 15.9938 16.8298 15.7383 17.0223C15.4866 17.2112 15.1829 17.3574 14.8275 17.4611C14.4757 17.5611 14.0832 17.6111 13.65 17.6111C13.2612 17.6111 12.8779 17.5592 12.5002 17.4556C12.1263 17.3519 11.7856 17.1945 11.4783 16.9835C11.1709 16.7687 10.9266 16.5021 10.7451 16.1837C10.5637 15.8615 10.473 15.4857 10.473 15.0562H11.8671C11.8671 15.3191 11.9115 15.5431 12.0004 15.7282C12.0929 15.9134 12.2207 16.0652 12.3836 16.1837C12.5465 16.2984 12.7354 16.3836 12.9501 16.4391C13.1686 16.4947 13.4019 16.5225 13.65 16.5225C13.9758 16.5225 14.248 16.4762 14.4664 16.3836C14.6886 16.291 14.8552 16.1614 14.9663 15.9948C15.0774 15.8282 15.1329 15.6356 15.1329 15.4172Z" fill="#616161"/>
</svg>
